<svg width="119" height="154" viewBox="0 0 119 154" fill="none" xmlns="http://www.w3.org/2000/svg">
<path d="M72.1746 86.8476C70.8163 87.1518 69.4933 87.7153 68.2877 88.5028C65.1469 90.5041 63.3196 93.3608 64.2066 94.8829C65.0935 96.4051 68.3586 96.0158 71.4993 94.0145C72.7211 93.2549 73.8065 92.2841 74.6887 91.1621C75.0981 90.62 75.1715 89.9446 74.8763 89.4396L73.7241 87.4623C73.431 86.9557 72.8229 86.7149 72.1746 86.8476Z" fill="#D5D6DB"/>
<path d="M64.2875 59.8543C63.3025 60.0751 62.3431 60.4839 61.4688 61.0549C59.192 62.5057 57.8662 64.5771 58.5088 65.6799C59.1514 66.7827 61.5199 66.5002 63.7965 65.0495C64.6824 64.4985 65.4693 63.7942 66.1091 62.9806C66.4056 62.5876 66.4587 62.0983 66.2447 61.7322L65.4105 60.3004C65.1982 59.9333 64.7576 59.7582 64.2875 59.8543Z" fill="#D5D6DB"/>
<path d="M51.4735 60.9848C51.2543 60.9604 51.0204 61.0188 50.8177 61.1483L45.4695 64.5565C45.0221 64.8407 44.8431 65.3881 45.0701 65.7793C45.122 65.8689 45.193 65.9454 45.2792 66.0044L58.4609 75.0894L76.2943 63.7247L51.4735 60.9848Z" fill="#029BC5"/>
<path d="M107.85 59.7005L59.3184 90.2526L30.6056 101.678L15.9625 104.589L14.3516 101.852L95.2467 51.9049C97.6575 50.4101 100.343 49.4925 103.032 49.2454C104.209 49.1435 105.372 49.1827 106.493 49.3615C107.487 49.5122 108.43 49.8029 109.294 50.225C110.258 50.7032 112.093 50.7584 112.687 51.7112C112.689 51.7097 114.091 56.0841 107.85 59.7005V59.7005Z" fill="#E1E6E9"/>
<path d="M59.9617 86.2096L38.9665 119.68C38.7042 120.15 38.8599 120.676 39.3138 120.855C39.5923 120.965 39.9333 120.922 40.2197 120.74L45.5637 117.35C46.5915 116.697 47.5016 115.869 48.2378 114.915L88.9542 67.0464L59.9617 86.2096Z" fill="#029BC5"/>
<path d="M6.98214 85.0923C6.63192 84.9726 6.21513 85.0347 5.8633 85.2588L1.44581 88.0722C0.843895 88.4552 0.604045 89.1917 0.909906 89.7173C0.968182 89.8173 1.04388 89.9052 1.13462 89.9777L13.5114 99.89L26.5244 91.7619L6.98214 85.0923Z" fill="#029BC5"/>
<path d="M17.6599 101.677L10.9985 111.006C10.9008 111.14 10.9238 111.309 11.0497 111.382C11.1406 111.435 11.2646 111.425 11.3654 111.358L15.4936 108.742C15.5257 108.722 15.5547 108.696 15.5787 108.667L25.3123 96.8323L17.6599 101.677Z" fill="#029BC5"/>
<path d="M105.697 49.7635C104.542 49.578 103.345 49.5385 102.132 49.6451C100.951 51.2961 100.196 53.1509 99.9428 55.0243C99.9243 55.4006 100.228 55.6715 100.621 55.6293C100.743 55.616 100.864 55.5731 100.973 55.5043L108.581 50.6601C107.692 50.2215 106.721 49.9196 105.697 49.7635Z" fill="#029BC5"/>
<path d="M89.1177 58.6714L94.0847 55.5344L98.7113 63.4035L93.7443 66.5404L89.1177 58.6714Z" fill="#D5D6DB"/>
<path d="M85.9918 61.784C85.3933 62.1631 85.154 62.8919 85.4579 63.4116L85.9502 64.2536C86.274 64.7601 87.0133 64.8491 87.6016 64.4524C88.1614 64.0746 88.3869 63.388 88.1171 62.8809L87.6248 62.039C87.3211 61.5197 86.5903 61.4054 85.9918 61.784V61.784Z" fill="#3A556A"/>
<path d="M81.5274 64.5564C80.9289 64.9356 80.6896 65.6644 80.9935 66.1841L81.4858 67.0261C81.8097 67.5325 82.549 67.6216 83.1372 67.2249C83.6971 66.8471 83.9225 66.1604 83.6527 65.6534L83.1604 64.8114C82.8565 64.2923 82.1257 64.178 81.5274 64.5564V64.5564Z" fill="#3A556A"/>
<path d="M77.0618 67.3297C76.4639 67.7094 76.2255 68.4373 76.5292 68.9565L77.0215 69.7985C77.3453 70.3049 78.0846 70.394 78.6729 69.9973C79.2327 69.6195 79.4581 68.9329 79.1884 68.4258L78.696 67.5839C78.3922 67.0642 77.6606 66.9504 77.0618 67.3297V67.3297Z" fill="#3A556A"/>
<path d="M72.5975 70.1022C71.9996 70.4818 71.7612 71.2097 72.0648 71.729L72.5571 72.571C72.881 73.0775 73.6202 73.1665 74.2085 72.7698C74.7683 72.392 74.9938 71.7053 74.724 71.1983L74.2317 70.3563C73.9276 69.8368 73.196 69.723 72.5975 70.1022V70.1022Z" fill="#3A556A"/>
<path d="M68.1337 72.8748C67.5355 73.2546 67.297 73.9829 67.6008 74.5024L68.0934 75.3447C68.397 75.864 69.1283 75.9777 69.7267 75.5987C70.325 75.2197 70.5639 74.4915 70.2603 73.9722L69.7677 73.1299C69.4648 72.6102 68.7338 72.4957 68.135 72.874C68.1345 72.8743 68.1342 72.8745 68.1337 72.8748Z" fill="#3A556A"/>
<path d="M63.6689 75.6473C63.0707 76.0271 62.8321 76.7553 63.1359 77.2748L63.6285 78.1171C63.9322 78.6364 64.6635 78.7501 65.2618 78.3711C65.8602 77.9922 66.0991 77.264 65.7954 76.7447L65.3028 75.9024C64.9999 75.3826 64.2689 75.2681 63.6702 75.6465C63.6697 75.6468 63.6691 75.6471 63.6689 75.6473Z" fill="#3A556A"/>
<path d="M59.2045 78.4198C58.6063 78.7996 58.3678 79.5278 58.6716 80.0472L59.1642 80.8896C59.4686 81.4083 60.2002 81.5209 60.7979 81.1414C61.3946 80.7626 61.633 80.036 61.3308 79.5173L60.8382 78.675C60.5346 78.1554 59.8034 78.0411 59.2045 78.4198Z" fill="#3A556A"/>
<path d="M54.7402 81.1922C54.1419 81.572 53.9034 82.3002 54.2072 82.8197L54.6998 83.6621C55.0042 84.1809 55.7358 84.2934 56.3336 83.914C56.9303 83.5351 57.1687 82.8084 56.8664 82.2898L56.3738 81.4474C56.0703 80.9278 55.339 80.8135 54.7402 81.1922Z" fill="#3A556A"/>
<path d="M50.2758 83.9647C49.6776 84.3445 49.4391 85.0727 49.7429 85.5922L50.2354 86.4345C50.5399 86.9533 51.2715 87.0658 51.8692 86.6864C52.4659 86.3075 52.7043 85.5809 52.402 85.0622L51.9095 84.2199C51.6057 83.7004 50.8744 83.5861 50.2758 83.9647Z" fill="#3A556A"/>
<path d="M45.81 86.7381C45.2116 87.1171 44.9727 87.8453 45.2764 88.3645L45.277 88.3656L45.7696 89.208C46.0741 89.7268 46.8057 89.8393 47.4034 89.4599C48.0001 89.081 48.2385 88.3543 47.9362 87.8357L47.4436 86.9933C47.1401 86.4737 46.4089 86.3594 45.81 86.7381Z" fill="#3A556A"/>
<path d="M41.3466 89.5096C40.7483 89.8886 40.5094 90.6167 40.813 91.136L40.8137 91.1371L41.3063 91.9794C41.6107 92.4982 42.3423 92.6108 42.94 92.2313C43.5368 91.8524 43.7752 91.1258 43.4729 90.6072L42.9803 89.7648C42.6765 89.2454 41.9453 89.1311 41.3466 89.5096Z" fill="#3A556A"/>
</svg>
