<svg xmlns="http://www.w3.org/2000/svg" width="430" height="430" fill="none" viewBox="0 0 430 430"><g stroke-width="18"><path stroke="#121331" stroke-linejoin="round" d="M55 75c0-11.046 8.954-20 20-20h280c11.046 0 20 8.954 20 20v280c0 11.046-8.954 20-20 20H75c-11.046 0-20-8.954-20-20z"/><path stroke="#f0bb1f" d="M215 340.023a6.92 6.92 0 0 1-6.533-4.646c-9.437-34.868-28.628-65.727-54.463-89.469-33.064-33.497-32.93-87.454.401-120.785 16.733-16.733 38.664-25.1 60.595-25.1s43.862 8.367 60.595 25.1c33.331 33.331 33.465 87.288.401 120.785-25.835 23.742-45.026 54.601-54.463 89.469a6.915 6.915 0 0 1-6.533 4.646Z"/><path stroke="#f0bb1f" d="M215 151.439c-18.931 0-34.277 15.347-34.277 34.278s15.346 34.278 34.277 34.278 34.278-15.347 34.278-34.278-15.347-34.278-34.278-34.278Zm75.573-6.169-43.059 51.332m-7.133-92.75-44.35 53.312m-44.011-29.56 39.303 33.329m-52.207 64.647 44.342-53.303m-2.777 103.998 50.697-60.437"/></g></svg>